<?xml version="1.0" ?>
<svg id="Layer_1" xmlns="http://www.w3.org/2000/svg"
     width="100%" viewBox="0 0 409 409">
  <path stroke="#151b3f" stroke-width="5" d="M320.725891,219.000153
	C320.658386,240.327835 320.561646,261.155579 320.601044,281.983032
	C320.603271,283.145996 321.729706,284.306854 322.332855,285.468689
	C322.829651,285.319305 323.326447,285.169922 323.823242,285.020569
	C323.823242,278.605652 323.916290,272.188934 323.789154,265.776520
	C323.710114,261.788727 324.808319,258.728699 329.202606,258.237030
	C332.759338,257.839111 334.975372,260.884521 335.003510,265.852417
	C335.039307,272.175812 335.012177,278.499603 335.012177,284.190582
	C342.388458,283.578033 349.678864,281.957703 356.767120,282.593018
	C372.023834,283.960541 383.356049,292.513763 391.756470,304.975220
	C406.610901,327.010834 406.545807,357.961273 391.761871,380.044678
	C378.486816,399.874237 354.533264,409.435120 331.560791,397.866302
	C330.359528,397.261292 328.359985,397.349304 327.086090,397.913757
	C305.561127,407.450867 284.639343,402.382843 269.916412,383.933563
	C253.459564,363.311493 251.345444,332.254120 264.796021,308.644531
	C265.526276,307.362732 266.293457,306.101959 267.328247,304.348938
	C232.088699,304.348938 197.271469,304.348938 163.315567,304.348938
	C160.275345,310.183685 157.413605,315.675903 154.849121,320.597595
	C157.147888,325.740570 160.707840,330.899933 161.591553,336.482971
	C162.449753,341.904846 160.562088,347.761383 159.883423,353.400421
	C160.585526,355.988617 161.917831,358.914612 162.079453,361.903839
	C162.429840,368.383942 162.312958,374.899719 162.149353,381.394928
	C161.845535,393.456757 152.909149,402.749359 140.877808,402.807770
	C103.716415,402.988281 66.552986,402.993927 29.391676,402.805298
	C17.609644,402.745514 8.575202,393.534912 8.175547,381.805847
	C7.931654,374.648163 7.866009,367.462341 8.247559,360.317322
	C8.380726,357.823578 10.093309,355.414154 11.359153,352.288239
	C5.746214,340.328705 7.073636,331.470001 16.845585,321.036652
	C7.747472,311.608032 5.251626,300.949829 10.854840,290.573975
	C9.719637,285.528870 8.260202,281.955231 8.242525,278.374451
	C8.202368,270.239807 7.862604,261.898773 9.450370,254.004868
	C13.406337,234.336945 30.809715,220.461151 50.994846,220.009567
	C62.321350,219.756195 73.657600,219.938019 84.989456,219.924408
	C86.612251,219.922470 88.235046,219.924133 90.279495,219.924133
	C90.279495,217.665588 90.279495,215.873657 90.279495,214.081726
	C90.279572,154.755249 90.574860,95.426430 90.103889,36.103691
	C89.958305,17.765696 104.184593,8.102324 117.971977,8.106225
	C176.298569,8.122727 234.625153,8.115059 292.951752,8.111684
	C307.506073,8.110842 321.024933,18.329884 320.895966,36.023739
	C320.452545,96.846382 320.725830,157.674255 320.725891,219.000153
M245.500153,19.310570
	C203.510696,19.310844 161.521225,19.288351 119.531792,19.325268
	C106.935036,19.336342 101.588913,24.726097 101.588562,37.160919
	C101.586899,96.146049 101.587723,155.131180 101.587669,214.116318
	C101.587669,215.904770 101.587677,217.693207 101.587677,220.234344
	C127.652969,217.841461 149.912277,222.729294 159.954773,250.198547
	C164.251602,261.951630 163.079987,284.074585 158.559158,288.548553
	C159.323624,291.820312 161.242401,292.845490 164.664963,292.832642
	C201.155243,292.695312 237.646271,292.756226 274.137024,292.717255
	C275.752075,292.715515 277.772705,292.816467 278.917023,291.955688
	C287.850647,285.235870 297.906372,281.977448 309.418762,282.001434
	C309.418762,279.239166 309.418793,276.931946 309.418793,274.624695
	C309.418823,207.308319 309.418945,139.991943 309.418701,72.675575
	C309.418640,59.845474 309.461609,47.015160 309.398987,34.185360
	C309.362976,26.807125 305.580139,21.926395 298.406952,20.131884
	C296.015533,19.533625 293.467102,19.357126 290.988800,19.345499
	C276.159515,19.275911 261.329773,19.310755 245.500153,19.310570
M303.737427,391.462372
	C311.502106,392.190796 318.600494,390.203705 325.058533,385.976837
	C327.878540,384.131104 330.421753,383.814392 333.353180,385.742706
	C351.186523,397.473816 370.374817,390.327393 381.192139,375.579193
	C395.310211,356.330811 395.019592,327.047485 380.392059,308.350128
	C368.080902,292.613647 350.723175,289.156097 333.513885,299.172821
	C330.549774,300.898102 328.141266,300.849365 325.198181,299.111084
	C308.247986,289.099670 290.591644,292.672272 278.336670,308.427704
	C263.539764,327.451080 263.482758,357.453125 278.295532,376.466614
	C284.560028,384.507660 292.497314,389.930176 303.737427,391.462372
M39.434662,233.679596
	C21.622499,241.950928 17.386435,257.017731 19.851019,276.752869
	C63.509716,276.752869 107.169456,276.752869 151.001007,276.752869
	C151.001007,272.874420 151.012238,269.388031 150.999161,265.901703
	C150.920303,244.873840 137.300400,231.169327 116.300858,231.110458
	C95.487061,231.052109 74.671471,230.966476 53.860172,231.201981
	C49.282555,231.253784 44.719688,232.609131 39.434662,233.679596
M100.500122,364.715668
	C73.580948,364.715668 46.661777,364.715668 19.311440,364.715668
	C19.311440,369.725769 19.289669,374.188660 19.315989,378.651276
	C19.370119,387.829132 23.188110,391.658600 32.394127,391.679138
	C46.548504,391.710724 60.703011,391.687988 74.857460,391.687897
	C96.172394,391.687714 117.487396,391.717560 138.802216,391.669189
	C145.632431,391.653687 150.238342,388.495789 150.732071,382.786774
	C151.241577,376.895569 150.845306,370.926025 150.845306,364.715668
	C134.099731,364.715668 117.799934,364.715668 100.500122,364.715668
M120.498276,288.369476
	C109.668808,288.369354 98.833618,288.181458 88.014183,288.510712
	C85.533684,288.586182 82.595276,289.883636 80.749359,291.578827
	C74.496696,297.321014 68.666847,303.521484 62.622234,309.492981
	C58.309700,313.753326 55.988136,313.751038 51.697357,309.504364
	C45.658321,303.527283 39.508553,297.647827 33.744598,291.413666
	C31.162588,288.621033 28.950056,288.450470 25.965549,290.288818
	C21.026857,293.330841 18.421019,299.355774 19.787592,304.916962
	C21.344574,311.252991 26.302151,315.209198 33.335819,315.222473
	C67.823517,315.287567 102.311493,315.290680 136.799179,315.223877
	C144.982620,315.208038 150.773605,309.710449 150.980316,302.188416
	C151.191254,294.512573 145.315262,288.635254 136.990829,288.400818
	C131.830032,288.255493 126.661903,288.371033 120.498276,288.369476
M121.540741,326.508575
	C114.432053,325.175446 109.277802,328.008698 104.724770,333.429230
	C100.458084,338.508911 95.430801,342.954224 90.689896,347.629700
	C86.333572,351.925903 84.087692,351.955994 79.781235,347.705688
	C73.501900,341.508209 67.361214,335.168182 60.993382,329.064209
	C59.690037,327.814880 57.666885,326.678314 55.938076,326.621063
	C48.289356,326.367828 40.621109,326.343964 32.971127,326.587982
	C24.962021,326.843445 19.189209,332.816010 19.333117,340.218750
	C19.474615,347.497589 25.109653,353.305878 32.931530,353.338135
	C67.722733,353.481598 102.515091,353.486176 137.306366,353.359589
	C145.386032,353.330231 151.075958,347.352295 150.982681,339.837891
	C150.891785,332.517670 145.347275,326.929260 137.509155,326.578583
	C132.524811,326.355591 127.523201,326.518585 121.540741,326.508575
M93.128517,329.430298
	C93.754745,328.614746 94.380974,327.799164 95.268227,326.643677
	C88.263405,326.643677 81.892853,326.643677 76.180481,326.643677
	C79.088531,329.975128 82.183968,333.521271 85.642998,337.483948
	C88.094749,334.845184 90.360596,332.406525 93.128517,329.430298
M53.193504,295.284210
	C54.491882,296.525330 55.790260,297.766418 56.611755,298.551666
	C60.226871,295.188934 63.569550,292.079590 67.294289,288.614868
	C60.299366,288.614868 53.842564,288.614868 47.385761,288.614868
	C47.120384,288.991638 46.855003,289.368378 46.589626,289.745148
	C48.624031,291.424408 50.658440,293.103668 53.193504,295.284210
z" />
  <path stroke="#151b3f" stroke-width="5" d="M139.002777,94.231880
	C134.172165,94.229576 129.840729,94.248901 125.509651,94.218689
	C121.417412,94.190147 119.291252,91.937920 119.269890,88.001038
	C119.186752,72.675415 119.206253,57.348991 119.252174,42.023056
	C119.264923,37.769165 121.579704,35.626251 125.816711,35.550095
	C126.815933,35.532135 127.815697,35.543541 128.815216,35.543537
	C179.957748,35.543324 231.100266,35.541634 282.242798,35.545067
	C290.561890,35.545624 291.773590,36.762959 291.776337,45.080490
	C291.780792,58.740711 291.797943,72.400978 291.769043,86.061134
	C291.755188,92.605721 290.096741,94.224457 283.434052,94.225960
	C235.456741,94.236801 187.479416,94.231827 139.002777,94.231880
M196.500092,46.785885
	C174.563309,46.785885 152.626511,46.785885 130.783463,46.785885
	C130.783463,59.193199 130.783463,70.945572 130.783463,82.719299
	C180.823441,82.719299 230.554138,82.719299 280.214905,82.719299
	C280.214905,70.633308 280.214905,58.882309 280.214905,46.785881
	C252.437469,46.785881 224.968796,46.785881 196.500092,46.785885
z" />
  <path stroke="#151b3f" stroke-width="5" d="M253.010132,174.135406
	C253.513092,173.598557 253.714325,173.269653 254.001343,173.154343
	C264.912872,168.771088 276.099518,169.797256 287.006775,172.551575
	C289.174774,173.099030 291.528900,178.093658 291.569702,181.068085
	C291.925781,207.044968 291.837830,233.029037 291.730499,259.010345
	C291.703857,265.456604 287.826233,269.174896 281.356812,269.314423
	C274.531464,269.461639 267.697632,269.471985 260.872833,269.313324
	C254.372894,269.162262 250.732559,265.499207 250.711395,258.899719
	C250.628036,232.918243 250.629105,206.936081 250.768707,180.955078
	C250.780396,178.780884 252.058640,176.613495 253.010132,174.135406
M261.853516,190.534393
	C261.853516,212.954544 261.853516,235.374680 261.853516,257.924744
	C268.281830,257.924744 274.197876,257.924744 280.167297,257.924744
	C280.167297,232.504105 280.167297,207.316940 280.167297,182.234985
	C273.875977,182.234985 267.974609,182.234985 261.853516,182.234985
	C261.853516,184.914841 261.853516,187.231155 261.853516,190.534393
z" />
  <path stroke="#151b3f" stroke-width="5" d="M223.786392,207.638763
	C223.172348,208.287796 222.861374,208.782913 222.427887,208.940094
	C211.621918,212.858185 200.585281,212.120453 189.796387,209.453796
	C187.667419,208.927582 185.484222,204.348923 185.205963,201.458191
	C184.538376,194.523331 184.855240,187.477631 185.028488,180.482956
	C185.169357,174.795609 188.748917,171.002777 194.399979,170.815063
	C201.889343,170.566299 209.399338,170.593765 216.889496,170.838135
	C221.565109,170.990662 225.302612,173.741196 225.622375,178.299652
	C226.214859,186.745895 225.838882,195.266022 225.682739,203.752029
	C225.660614,204.953522 224.608017,206.136078 223.786392,207.638763
M196.221405,182.811752
	C196.221405,188.405869 196.221405,193.999969 196.221405,199.677002
	C202.629044,199.677002 208.640518,199.677002 214.549622,199.677002
	C214.549622,193.574814 214.549622,187.851303 214.549622,182.090729
	C208.422455,182.090729 202.633774,182.090729 196.221405,182.811752
z" />
  <path stroke="#151b3f" stroke-width="5" d="M212.830292,228.848114
	C223.022491,228.965225 226.014633,232.012115 226.026367,241.817398
	C226.032928,247.311142 226.080307,252.805511 226.013794,258.298462
	C225.926743,265.486176 222.410141,269.190918 215.394241,269.319702
	C208.737442,269.441864 202.074417,269.450714 195.418182,269.313080
	C188.805771,269.176361 185.137787,265.583130 185.005646,259.114716
	C184.869675,252.458420 184.873337,245.795151 185.004791,239.138672
	C185.131973,232.697769 188.855972,229.031021 195.376038,228.880386
	C201.033264,228.749680 206.695831,228.849960 212.830292,228.848114
M211.335312,258.159210
	C212.517685,257.471619 214.681641,256.840027 214.724579,256.087463
	C215.023438,250.848648 214.882431,245.584732 214.882431,240.251801
	C208.367920,240.251801 202.468872,240.251801 196.344574,240.251801
	C196.344574,246.237228 196.344574,251.961807 196.344574,258.159302
	C201.151688,258.159302 205.760559,258.159302 211.335312,258.159210
z" />
  <path stroke="#151b3f" stroke-width="5" d="M250.908463,145.319794
	C250.792450,137.395721 250.595200,129.899261 250.742096,122.409554
	C250.858887,116.455498 254.462265,112.820335 260.500916,112.632019
	C267.656158,112.408859 274.830627,112.398407 281.984192,112.651756
	C287.965942,112.863617 291.542511,116.552483 291.718781,122.538727
	C291.919739,129.362640 291.922638,136.201569 291.721893,143.025452
	C291.541473,149.157120 287.714996,152.873322 281.542542,153.024872
	C274.883209,153.188370 268.216858,153.051041 261.553741,153.079773
	C256.301514,153.102417 252.611206,150.922150 250.908463,145.319794
M268.562225,141.935745
	C272.455170,141.935745 276.348145,141.935745 280.246002,141.935745
	C280.246002,135.491180 280.246002,129.779312 280.246002,124.001335
	C274.041382,124.001335 268.153442,124.001335 262.067627,124.001335
	C262.067627,129.977371 262.067627,135.688446 262.067627,141.935867
	C264.055756,141.935867 265.827240,141.935867 268.562225,141.935745
z" />
  <path stroke="#151b3f" stroke-width="5" d="M134.078674,112.543640
	C139.725815,112.547119 144.890244,112.414177 150.044281,112.588341
	C156.621277,112.810593 160.158875,116.388550 160.289841,122.942818
	C160.422821,129.597946 160.435806,136.260620 160.281143,142.914871
	C160.136551,149.134811 156.473557,152.870590 150.307541,153.021530
	C143.321213,153.192551 136.324066,153.191635 129.337845,153.017181
	C123.215073,152.864288 119.472221,149.073776 119.270981,142.915268
	C119.097115,137.594650 119.231781,132.263916 119.231430,126.937653
	C119.230667,115.236763 121.893143,112.568367 134.078674,112.543640
M149.150940,136.392609
	C149.150940,132.303406 149.150940,128.214218 149.150940,123.950264
	C142.722672,123.950264 136.830612,123.950264 130.819641,123.950264
	C130.819641,130.015671 130.819641,135.861008 130.819641,141.606888
	C137.090118,141.606888 142.976547,141.606888 149.151276,141.606888
	C149.151276,139.972336 149.151276,138.668488 149.150940,136.392609
z" />
  <path stroke="#151b3f" stroke-width="5" d="M160.322540,193.964218
	C160.323563,209.667526 158.784317,211.194016 143.432938,211.191895
	C138.772873,211.191238 134.109344,211.293518 129.453613,211.148788
	C123.279236,210.956818 119.456917,207.289566 119.286057,201.169632
	C119.095695,194.351257 119.096191,187.519318 119.288261,180.701019
	C119.455429,174.766739 123.124954,170.970917 128.978348,170.784454
	C136.127502,170.556747 143.293869,170.562210 150.444061,170.768982
	C156.643005,170.948212 160.105164,174.671539 160.294342,180.990128
	C160.418808,185.147278 160.320892,189.311096 160.322540,193.964218
M141.475281,200.050278
	C143.907455,200.050278 146.339630,200.050278 148.742889,200.050278
	C148.742889,193.668015 148.742889,187.834366 148.742889,182.033844
	C142.556595,182.033844 136.779846,182.033844 130.766785,182.033844
	C130.766785,188.066299 130.766785,193.925598 130.766785,200.050278
	C134.228058,200.050278 137.365189,200.050278 141.475281,200.050278
z" />
  <path stroke="#151b3f" stroke-width="5" d="M216.454712,153.035736
	C209.182449,153.062347 202.352829,153.164551 195.527344,153.040024
	C188.758362,152.916550 185.098679,149.196426 184.995407,142.416031
	C184.896515,135.922729 184.879242,129.425003 184.999954,122.932449
	C185.121033,116.419579 188.687637,112.781189 195.293320,112.604530
	C202.116135,112.422073 208.951797,112.417305 215.774185,112.608261
	C222.331451,112.791809 225.882736,116.474182 226.001740,123.000961
	C226.117096,129.327118 226.077942,135.657562 226.013138,141.985168
	C225.945007,148.638306 223.568268,151.450378 216.454712,153.035736
M202.610626,141.935059
	C206.547058,141.935059 210.483490,141.935059 214.645706,141.935059
	C214.645706,135.700806 214.645706,129.986786 214.645706,124.095718
	C208.425552,124.095718 202.424652,124.095718 196.437134,124.095718
	C196.437134,130.168259 196.437134,135.878159 196.437134,141.935181
	C198.390945,141.935181 200.021957,141.935181 202.610626,141.935059
z" />
  <path stroke="#151b3f" stroke-width="5" d="M101.656601,266.581482
	C98.501442,269.488312 95.337219,269.423798 93.563782,266.095459
	C92.723442,264.518341 93.500076,261.245789 94.737701,259.692139
	C95.546089,258.677368 99.602211,258.569244 100.255135,259.468964
	C101.524147,261.217651 101.422112,263.961273 101.656601,266.581482
z" />
  <path stroke="#151b3f" stroke-width="5" d="M127.010666,265.946869
	C122.856201,269.489197 118.771538,269.061035 117.923111,265.080139
	C117.575035,263.446930 118.192162,260.741241 119.366661,259.876068
	C120.746315,258.859772 124.062439,258.429871 125.003082,259.337372
	C126.424370,260.708588 126.517044,263.456970 127.010666,265.946869
z" />
  <path stroke="#151b3f" stroke-width="5" d="M70.683304,268.110565
	C69.565109,265.840149 68.226753,263.699524 68.274155,261.590027
	C68.298668,260.498901 70.760986,258.649109 72.158379,258.614532
	C73.792305,258.574005 76.013641,259.760040 76.953865,261.122314
	C77.744621,262.268005 77.749405,265.168640 76.880592,265.973083
	C75.453033,267.294891 73.036865,267.548981 70.683304,268.110565
z" />
  <path stroke="#151b3f" stroke-width="5" d="M44.444477,259.713928
	C48.111668,257.418762 51.245819,258.156006 52.268768,261.733429
	C52.771160,263.490417 51.060631,266.421448 49.509037,267.985107
	C48.785881,268.713928 44.855354,267.931061 44.485344,266.997986
	C43.667980,264.936768 44.185646,262.346130 44.444477,259.713928
z" />
  <path stroke="#151b3f" stroke-width="5" d="M56.166374,247.781647
	C54.205803,243.908875 55.278946,240.875473 58.911884,240.199356
	C60.712704,239.864212 64.265015,241.863449 64.742447,243.480469
	C65.221870,245.104218 63.251587,248.014786 61.576649,249.458618
	C60.810238,250.119308 58.177811,248.615280 56.166374,247.781647
z" />
  <path stroke="#151b3f" stroke-width="5" d="M105.952774,241.954468
	C108.521111,239.292191 111.335167,238.810989 113.483162,241.291489
	C114.601959,242.583450 115.256027,245.861374 114.433403,246.879501
	C113.202469,248.402985 110.232880,249.766174 108.454491,249.334915
	C105.105576,248.522827 104.141975,245.626266 105.952774,241.954468
z" />
  <path stroke="#151b3f" stroke-width="5" d="M90.189796,244.128769
	C88.989563,249.274445 85.818779,251.391556 82.814980,249.085068
	C81.405907,248.003098 80.222900,245.514389 80.402405,243.818237
	C80.553482,242.390701 83.068214,239.941681 84.106842,240.144592
	C86.265312,240.566284 88.138824,242.446503 90.189796,244.128769
z" />
</svg>
